<svg width="1440" height="1024" viewBox="0 0 1440 1024" fill="none" xmlns="http://www.w3.org/2000/svg">
<g clip-path="url(#clip0_3_2)">
<rect width="1440" height="1024" fill="white"/>
<path d="M292.427 111.878C285.524 204.053 206.535 273.28 116 266.5C25.4651 259.72 -42.3319 179.5 -35.4289 87.3247C-28.5259 -4.85092 50.4631 -74.0777 140.998 -67.2975C231.533 -60.5174 299.33 19.7021 292.427 111.878Z" fill="#FB5FBC"/>
<path d="M192 255.5C192 333.648 124.619 397 41.5 397C-41.6189 397 -109 333.648 -109 255.5C-109 177.352 -41.6189 114 41.5 114C124.619 114 192 177.352 192 255.5Z" fill="#3AB7FD" fill-opacity="0.5"/>
<path d="M1530.27 58.2567C1533.43 137.857 1469.17 205.044 1386.73 208.323C1304.29 211.601 1234.9 149.73 1231.73 70.1295C1228.57 -9.47101 1292.83 -76.6578 1375.27 -79.9364C1457.71 -83.215 1527.1 -21.3438 1530.27 58.2567Z" fill="#FBEB5F"/>
<path d="M1589.27 241.13C1592.43 320.73 1528.17 387.917 1445.73 391.196C1363.29 394.474 1293.9 332.603 1290.73 253.002C1287.57 173.402 1351.83 106.215 1434.27 102.936C1516.71 99.6579 1586.1 161.529 1589.27 241.13Z" fill="#5FFBD5" fill-opacity="0.7"/>
<circle cx="62.5" cy="754.5" r="205.5" fill="#FD5A77"/>
<ellipse cx="196.5" cy="850" rx="155.5" ry="160" fill="#4D54FF" fill-opacity="0.7"/>
</g>
<defs>
<clipPath id="clip0_3_2">
<rect width="1440" height="1024" fill="white"/>
</clipPath>
</defs>
</svg>
